<svg width="74" height="22" viewBox="0 0 74 22" fill="none" xmlns="http://www.w3.org/2000/svg">
<path d="M3.52061 3.81373L1.24864 6.61637C1.10682 6.79131 1.11828 7.04467 1.27531 7.20609C1.42051 7.35535 1.6499 7.38377 1.82714 7.27445L2.6179 6.78672C3.28414 6.3758 4.14286 6.85508 4.14286 7.63785V14.4762C4.14286 14.7655 4.37737 15 4.66667 15C4.95596 15 5.19048 14.7655 5.19048 14.4762V11.3904C5.19048 10.8662 5.77806 10.5565 6.21051 10.8529C6.51274 11.06 6.92626 10.9773 7.12563 10.6699L7.40078 10.2457C7.61012 9.92285 8.06506 9.87807 8.33333 10.1538C8.60161 10.4296 9.05654 10.3848 9.26589 10.062L9.55228 9.62044C9.75243 9.31182 10.1538 9.20491 10.4809 9.37306C10.7611 9.51705 11.1024 9.46119 11.322 9.23542L11.7168 8.82959C11.8984 8.64291 12 8.39275 12 8.1323V6.48099C12 6.41689 11.9938 6.35294 11.9816 6.29001L11.1098 1.80902C11.0184 1.33918 10.6068 1 10.1282 1H5.35059C4.93825 1 4.56818 1.2531 4.41866 1.63737L3.67573 3.54663C3.63817 3.64316 3.58584 3.73327 3.52061 3.81373Z" fill="black" stroke="black"/>
<path d="M24.812 1.418H18.602C18.584 1.418 18.584 1.418 18.566 1.418H18.548C18.044 1.418 17.648 1.814 17.648 2.318V13.082C17.648 13.586 18.044 13.982 18.548 13.982C19.034 13.982 19.448 13.586 19.448 13.082V8.636H23.534C24.02 8.636 24.434 8.24 24.434 7.736C24.434 7.232 24.02 6.836 23.534 6.836H19.448V3.218H24.812C25.298 3.218 25.712 2.822 25.712 2.318C25.712 1.814 25.298 1.418 24.812 1.418ZM27.7217 14.018C28.2077 14.018 28.6037 13.622 28.6037 13.118V5.864C28.6037 5.378 28.2077 4.982 27.7217 4.982C27.2177 4.982 26.8217 5.378 26.8217 5.864V13.118C26.8217 13.622 27.2177 14.018 27.7217 14.018ZM27.7217 3.182C27.9557 3.182 28.1897 3.092 28.3517 2.93C28.5137 2.768 28.6037 2.534 28.6037 2.3C28.6037 2.066 28.5137 1.832 28.3517 1.67C28.1897 1.508 27.9557 1.4 27.7217 1.4C27.4877 1.4 27.2537 1.508 27.0917 1.67C26.9297 1.832 26.8217 2.066 26.8217 2.3C26.8217 2.534 26.9297 2.768 27.0917 2.93C27.2537 3.092 27.4877 3.182 27.7217 3.182ZM34.1501 4.964C31.6661 4.964 29.6321 6.98 29.6321 9.482V13.1C29.6321 13.604 30.0281 14 30.5141 14C31.0181 14 31.4141 13.604 31.4141 13.1V9.482C31.4141 7.97 32.6381 6.746 34.1501 6.746C35.6621 6.746 36.8861 7.97 36.8861 9.482V13.1C36.8861 13.604 37.2821 14 37.7681 14C38.2721 14 38.6681 13.604 38.6681 13.1V9.482C38.6681 6.98 36.6341 4.964 34.1501 4.964ZM40.5889 14.018C41.0749 14.018 41.4709 13.622 41.4709 13.118V5.864C41.4709 5.378 41.0749 4.982 40.5889 4.982C40.0849 4.982 39.6889 5.378 39.6889 5.864V13.118C39.6889 13.622 40.0849 14.018 40.5889 14.018ZM40.5889 3.182C40.8229 3.182 41.0569 3.092 41.2189 2.93C41.3809 2.768 41.4709 2.534 41.4709 2.3C41.4709 2.066 41.3809 1.832 41.2189 1.67C41.0569 1.508 40.8229 1.4 40.5889 1.4C40.3549 1.4 40.1209 1.508 39.9589 1.67C39.7969 1.832 39.6889 2.066 39.6889 2.3C39.6889 2.534 39.7969 2.768 39.9589 2.93C40.1209 3.092 40.3549 3.182 40.5889 3.182ZM46.9993 14.018C48.5473 14.018 49.9693 13.244 50.7973 11.948C51.0673 11.534 50.9593 10.976 50.5453 10.706C50.1313 10.454 49.5733 10.562 49.3033 10.976C48.7993 11.768 47.9353 12.236 46.9993 12.236C45.5053 12.236 44.2633 10.994 44.2633 9.5C44.2633 7.988 45.5053 6.764 46.9993 6.764C47.9893 6.764 48.8893 7.286 49.3753 8.132C49.6273 8.546 50.1673 8.69 50.5993 8.456C51.0133 8.204 51.1753 7.664 50.9233 7.232C50.1133 5.846 48.6193 4.982 46.9993 4.982C44.5153 4.982 42.4993 6.998 42.4993 9.5C42.4993 11.984 44.5153 14.018 46.9993 14.018ZM59.2639 12.506L55.9879 8.564L59.1379 6.494C59.5159 6.188 59.5699 5.612 59.2639 5.234C58.9399 4.856 58.3819 4.82 58.0039 5.126L53.9179 7.808V1.4C53.9179 0.913999 53.5039 0.518 53.0179 0.518C52.5319 0.518 52.1359 0.913999 52.1359 1.4V9.446V13.064C52.1359 13.568 52.5319 13.964 53.0179 13.964C53.5039 13.964 53.9179 13.568 53.9179 13.064V9.914L54.4759 9.536L57.8959 13.64C58.0579 13.856 58.3099 13.964 58.5799 13.964C58.7779 13.964 58.9759 13.892 59.1379 13.748C59.5159 13.442 59.5699 12.884 59.2639 12.506ZM66.8884 5.036C66.4024 5.036 66.0064 5.432 66.0064 5.918V10.382C66.0064 11.408 65.1784 12.236 64.1524 12.236C63.1444 12.236 62.2984 11.408 62.2984 10.382V5.918C62.2984 5.432 61.9024 5.036 61.4164 5.036C60.9304 5.036 60.5344 5.432 60.5344 5.918V10.4C60.5344 10.4 60.5344 10.4 60.5344 10.418C60.5524 12.398 62.1724 14 64.1524 14C64.8364 14 65.4664 13.82 66.0064 13.496V14.792C66.0064 15.854 65.1424 16.718 64.0624 16.718C63.3244 16.718 62.6584 16.304 62.3164 15.638C62.1184 15.206 61.5784 15.008 61.1464 15.224C60.6964 15.44 60.5164 15.98 60.7324 16.412C61.3624 17.69 62.6404 18.5 64.0624 18.5C66.1144 18.5 67.7884 16.826 67.7884 14.792V5.918C67.7884 5.432 67.3924 5.036 66.8884 5.036Z" fill="black"/>
</svg>
