<svg width="75" height="23" viewBox="0 0 75 23" fill="none" xmlns="http://www.w3.org/2000/svg">
<path d="M4.61905 4.19231L2.24864 7.11637C2.10682 7.29131 2.11828 7.54467 2.27531 7.70609C2.42051 7.85535 2.6499 7.88377 2.82714 7.77445L3.6179 7.28672C4.28414 6.8758 5.14286 7.35508 5.14286 8.13785V14.9762C5.14286 15.2655 5.37737 15.5 5.66667 15.5C5.95596 15.5 6.19048 15.2655 6.19048 14.9762V11.8904C6.19048 11.3662 6.77806 11.0565 7.21051 11.3529C7.51274 11.56 7.92626 11.4773 8.12563 11.1699L8.40078 10.7457C8.61012 10.4229 9.06506 10.3781 9.33333 10.6538C9.60161 10.9296 10.0565 10.8848 10.2659 10.562L10.5523 10.1204C10.7524 9.81182 11.1538 9.70491 11.4809 9.87306C11.7611 10.017 12.1024 9.96119 12.322 9.73542L12.7168 9.32959C12.8984 9.14291 13 8.89275 13 8.6323V7.00242C13 6.92416 12.9908 6.84616 12.9726 6.77003L12.1358 3.26761C12.0282 2.81751 11.6259 2.5 11.1632 2.5H6.22372C5.87741 2.5 5.55574 2.67918 5.37346 2.97365L4.61905 4.19231Z" fill="black" stroke="black"/>
<path d="M25.812 2.418H19.602C19.584 2.418 19.584 2.418 19.566 2.418H19.548C19.044 2.418 18.648 2.814 18.648 3.318V14.082C18.648 14.586 19.044 14.982 19.548 14.982C20.034 14.982 20.448 14.586 20.448 14.082V9.636H24.534C25.02 9.636 25.434 9.24 25.434 8.736C25.434 8.232 25.02 7.836 24.534 7.836H20.448V4.218H25.812C26.298 4.218 26.712 3.822 26.712 3.318C26.712 2.814 26.298 2.418 25.812 2.418ZM28.7217 15.018C29.2077 15.018 29.6037 14.622 29.6037 14.118V6.864C29.6037 6.378 29.2077 5.982 28.7217 5.982C28.2177 5.982 27.8217 6.378 27.8217 6.864V14.118C27.8217 14.622 28.2177 15.018 28.7217 15.018ZM28.7217 4.182C28.9557 4.182 29.1897 4.092 29.3517 3.93C29.5137 3.768 29.6037 3.534 29.6037 3.3C29.6037 3.066 29.5137 2.832 29.3517 2.67C29.1897 2.508 28.9557 2.4 28.7217 2.4C28.4877 2.4 28.2537 2.508 28.0917 2.67C27.9297 2.832 27.8217 3.066 27.8217 3.3C27.8217 3.534 27.9297 3.768 28.0917 3.93C28.2537 4.092 28.4877 4.182 28.7217 4.182ZM35.1501 5.964C32.6661 5.964 30.6321 7.98 30.6321 10.482V14.1C30.6321 14.604 31.0281 15 31.5141 15C32.0181 15 32.4141 14.604 32.4141 14.1V10.482C32.4141 8.97 33.6381 7.746 35.1501 7.746C36.6621 7.746 37.8861 8.97 37.8861 10.482V14.1C37.8861 14.604 38.2821 15 38.7681 15C39.2721 15 39.6681 14.604 39.6681 14.1V10.482C39.6681 7.98 37.6341 5.964 35.1501 5.964ZM41.5889 15.018C42.0749 15.018 42.4709 14.622 42.4709 14.118V6.864C42.4709 6.378 42.0749 5.982 41.5889 5.982C41.0849 5.982 40.6889 6.378 40.6889 6.864V14.118C40.6889 14.622 41.0849 15.018 41.5889 15.018ZM41.5889 4.182C41.8229 4.182 42.0569 4.092 42.2189 3.93C42.3809 3.768 42.4709 3.534 42.4709 3.3C42.4709 3.066 42.3809 2.832 42.2189 2.67C42.0569 2.508 41.8229 2.4 41.5889 2.4C41.3549 2.4 41.1209 2.508 40.9589 2.67C40.7969 2.832 40.6889 3.066 40.6889 3.3C40.6889 3.534 40.7969 3.768 40.9589 3.93C41.1209 4.092 41.3549 4.182 41.5889 4.182ZM47.9993 15.018C49.5473 15.018 50.9693 14.244 51.7973 12.948C52.0673 12.534 51.9593 11.976 51.5453 11.706C51.1313 11.454 50.5733 11.562 50.3033 11.976C49.7993 12.768 48.9353 13.236 47.9993 13.236C46.5053 13.236 45.2633 11.994 45.2633 10.5C45.2633 8.988 46.5053 7.764 47.9993 7.764C48.9893 7.764 49.8893 8.286 50.3753 9.132C50.6273 9.546 51.1673 9.69 51.5993 9.456C52.0133 9.204 52.1753 8.664 51.9233 8.232C51.1133 6.846 49.6193 5.982 47.9993 5.982C45.5153 5.982 43.4993 7.998 43.4993 10.5C43.4993 12.984 45.5153 15.018 47.9993 15.018ZM60.2639 13.506L56.9879 9.564L60.1379 7.494C60.5159 7.188 60.5699 6.612 60.2639 6.234C59.9399 5.856 59.3819 5.82 59.0039 6.126L54.9179 8.808V2.4C54.9179 1.914 54.5039 1.518 54.0179 1.518C53.5319 1.518 53.1359 1.914 53.1359 2.4V10.446V14.064C53.1359 14.568 53.5319 14.964 54.0179 14.964C54.5039 14.964 54.9179 14.568 54.9179 14.064V10.914L55.4759 10.536L58.8959 14.64C59.0579 14.856 59.3099 14.964 59.5799 14.964C59.7779 14.964 59.9759 14.892 60.1379 14.748C60.5159 14.442 60.5699 13.884 60.2639 13.506ZM67.8884 6.036C67.4024 6.036 67.0064 6.432 67.0064 6.918V11.382C67.0064 12.408 66.1784 13.236 65.1524 13.236C64.1444 13.236 63.2984 12.408 63.2984 11.382V6.918C63.2984 6.432 62.9024 6.036 62.4164 6.036C61.9304 6.036 61.5344 6.432 61.5344 6.918V11.4C61.5344 11.4 61.5344 11.4 61.5344 11.418C61.5524 13.398 63.1724 15 65.1524 15C65.8364 15 66.4664 14.82 67.0064 14.496V15.792C67.0064 16.854 66.1424 17.718 65.0624 17.718C64.3244 17.718 63.6584 17.304 63.3164 16.638C63.1184 16.206 62.5784 16.008 62.1464 16.224C61.6964 16.44 61.5164 16.98 61.7324 17.412C62.3624 18.69 63.6404 19.5 65.0624 19.5C67.1144 19.5 68.7884 17.826 68.7884 15.792V6.918C68.7884 6.432 68.3924 6.036 67.8884 6.036Z" fill="black"/>
</svg>