<svg width="69" height="20" viewBox="0 0 69 20" fill="none" xmlns="http://www.w3.org/2000/svg">
<mask id="path-1-outside-1" maskUnits="userSpaceOnUse" x="-0.350555" y="0.0180054" width="69" height="20" fill="black">
<rect fill="white" x="-0.350555" y="0.0180054" width="69" height="20"/>
<path fill-rule="evenodd" clip-rule="evenodd" d="M59.2639 13.006L55.9879 9.06401L59.1379 6.99401C59.5159 6.68801 59.5699 6.11201 59.2639 5.73401C58.9398 5.35601 58.3819 5.32 58.0038 5.62601L53.9179 8.30801V1.9C53.9179 1.414 53.5038 1.01801 53.0178 1.01801C52.5318 1.01801 52.1359 1.414 52.1359 1.9V9.946V13.564C52.1359 14.068 52.5318 14.464 53.0178 14.464C53.5038 14.464 53.9179 14.068 53.9179 13.564V10.414L54.4758 10.036L57.8958 14.14C58.0578 14.356 58.3099 14.464 58.5799 14.464C58.7779 14.464 58.9758 14.392 59.1379 14.248C59.5159 13.942 59.5699 13.384 59.2639 13.006ZM27.7217 14.518C28.2077 14.518 28.6037 14.122 28.6037 13.618V6.36401C28.6037 5.87801 28.2077 5.48201 27.7217 5.48201C27.2177 5.48201 26.8217 5.87801 26.8217 6.36401V13.618C26.8217 14.122 27.2177 14.518 27.7217 14.518ZM27.7217 3.68201C27.9557 3.68201 28.1897 3.59201 28.3517 3.43001C28.5137 3.26801 28.6037 3.03401 28.6037 2.8C28.6037 2.566 28.5137 2.332 28.3517 2.17C28.1897 2.00801 27.9557 1.9 27.7217 1.9C27.4877 1.9 27.2537 2.00801 27.0917 2.17C26.9297 2.332 26.8217 2.566 26.8217 2.8C26.8217 3.03401 26.9297 3.26801 27.0917 3.43001C27.2537 3.59201 27.4877 3.68201 27.7217 3.68201ZM24.812 1.918H18.602H18.566H18.548C18.044 1.918 17.648 2.314 17.648 2.818V13.582C17.648 14.086 18.044 14.482 18.548 14.482C19.034 14.482 19.448 14.086 19.448 13.582V9.13601H23.534C24.02 9.13601 24.434 8.74001 24.434 8.23601C24.434 7.73201 24.02 7.33601 23.534 7.33601H19.448V3.71801H24.812C25.298 3.71801 25.712 3.322 25.712 2.818C25.712 2.314 25.298 1.918 24.812 1.918ZM29.6321 9.98201C29.6321 7.48001 31.6661 5.464 34.1501 5.464C36.6341 5.464 38.668 7.48001 38.668 9.98201V13.6C38.668 14.104 38.2721 14.5 37.7681 14.5C37.2821 14.5 36.8861 14.104 36.8861 13.6V9.98201C36.8861 8.47001 35.6621 7.24601 34.1501 7.24601C32.6381 7.24601 31.4141 8.47001 31.4141 9.98201V13.6C31.4141 14.104 31.0181 14.5 30.5141 14.5C30.0281 14.5 29.6321 14.104 29.6321 13.6V9.98201ZM40.5888 14.518C41.0748 14.518 41.4708 14.122 41.4708 13.618V6.36401C41.4708 5.87801 41.0748 5.48201 40.5888 5.48201C40.0848 5.48201 39.6888 5.87801 39.6888 6.36401V13.618C39.6888 14.122 40.0848 14.518 40.5888 14.518ZM40.5888 3.68201C40.8228 3.68201 41.0568 3.59201 41.2188 3.43001C41.3808 3.26801 41.4708 3.03401 41.4708 2.8C41.4708 2.566 41.3808 2.332 41.2188 2.17C41.0568 2.00801 40.8228 1.9 40.5888 1.9C40.3548 1.9 40.1208 2.00801 39.9588 2.17C39.7968 2.332 39.6888 2.566 39.6888 2.8C39.6888 3.03401 39.7968 3.26801 39.9588 3.43001C40.1208 3.59201 40.3548 3.68201 40.5888 3.68201ZM50.7972 12.448C49.9692 13.744 48.5472 14.518 46.9992 14.518C44.5152 14.518 42.4992 12.484 42.4992 10C42.4992 7.498 44.5152 5.48201 46.9992 5.48201C48.6192 5.48201 50.1132 6.34601 50.9232 7.73201C51.1752 8.16401 51.0132 8.70401 50.5992 8.95601C50.1672 9.19001 49.6272 9.04601 49.3752 8.63201C48.8892 7.78601 47.9892 7.26401 46.9992 7.26401C45.5052 7.26401 44.2632 8.48801 44.2632 10C44.2632 11.494 45.5052 12.736 46.9992 12.736C47.9352 12.736 48.7992 12.268 49.3032 11.476C49.5732 11.062 50.1312 10.954 50.5452 11.206C50.9592 11.476 51.0672 12.034 50.7972 12.448ZM66.0064 6.418C66.0064 5.93201 66.4024 5.53601 66.8884 5.53601C67.3924 5.53601 67.7884 5.93201 67.7884 6.418V15.292C67.7884 17.326 66.1144 19 64.0624 19C62.6404 19 61.3624 18.19 60.7324 16.912C60.5164 16.48 60.6964 15.94 61.1464 15.724C61.5784 15.508 62.1184 15.706 62.3164 16.138C62.6584 16.804 63.3244 17.218 64.0624 17.218C65.1424 17.218 66.0064 16.354 66.0064 15.292V13.996C65.4664 14.32 64.8364 14.5 64.1524 14.5C62.1724 14.5 60.5524 12.898 60.5344 10.918V10.9V6.418C60.5344 5.93201 60.9304 5.53601 61.4164 5.53601C61.9024 5.53601 62.2984 5.93201 62.2984 6.418V10.882C62.2984 11.908 63.1444 12.736 64.1524 12.736C65.1784 12.736 66.0064 11.908 66.0064 10.882V6.418ZM3.94832 2.21047C4.22175 1.76878 4.70424 1.5 5.22372 1.5H10.1632C10.8573 1.5 11.4608 1.97627 11.6221 2.65142L12.4589 6.15384C12.4862 6.26803 12.5 6.38502 12.5 6.50242V8.1323C12.5 8.52296 12.3476 8.89821 12.0752 9.17824L11.6804 9.58407C11.3075 9.96739 10.728 10.0622 10.2523 9.81776C10.1535 9.76696 10.0322 9.79926 9.97178 9.8925L9.68539 10.3341C9.30142 10.9262 8.467 11.0083 7.97493 10.5025C7.93044 10.4568 7.85499 10.4642 7.82028 10.5177L7.54513 10.942C7.1928 11.4853 6.46198 11.6314 5.92785 11.2653C5.82721 11.1964 5.69047 11.2684 5.69047 11.3904V14.4762C5.69047 15.0416 5.2321 15.5 4.66666 15.5C4.10123 15.5 3.64285 15.0416 3.64285 14.4762V7.63785C3.64285 7.24646 3.21349 7.00682 2.88037 7.21229L2.08961 7.70002C1.71295 7.93233 1.22549 7.87194 0.916909 7.55473C0.583206 7.21169 0.558852 6.67327 0.860224 6.3015L3.21063 3.40212L3.94832 2.21047Z"/>
</mask>
<path fill-rule="evenodd" clip-rule="evenodd" d="M59.2639 13.006L55.9879 9.06401L59.1379 6.99401C59.5159 6.68801 59.5699 6.11201 59.2639 5.73401C58.9398 5.35601 58.3819 5.32 58.0038 5.62601L53.9179 8.30801V1.9C53.9179 1.414 53.5038 1.01801 53.0178 1.01801C52.5318 1.01801 52.1359 1.414 52.1359 1.9V9.946V13.564C52.1359 14.068 52.5318 14.464 53.0178 14.464C53.5038 14.464 53.9179 14.068 53.9179 13.564V10.414L54.4758 10.036L57.8958 14.14C58.0578 14.356 58.3099 14.464 58.5799 14.464C58.7779 14.464 58.9758 14.392 59.1379 14.248C59.5159 13.942 59.5699 13.384 59.2639 13.006ZM27.7217 14.518C28.2077 14.518 28.6037 14.122 28.6037 13.618V6.36401C28.6037 5.87801 28.2077 5.48201 27.7217 5.48201C27.2177 5.48201 26.8217 5.87801 26.8217 6.36401V13.618C26.8217 14.122 27.2177 14.518 27.7217 14.518ZM27.7217 3.68201C27.9557 3.68201 28.1897 3.59201 28.3517 3.43001C28.5137 3.26801 28.6037 3.03401 28.6037 2.8C28.6037 2.566 28.5137 2.332 28.3517 2.17C28.1897 2.00801 27.9557 1.9 27.7217 1.9C27.4877 1.9 27.2537 2.00801 27.0917 2.17C26.9297 2.332 26.8217 2.566 26.8217 2.8C26.8217 3.03401 26.9297 3.26801 27.0917 3.43001C27.2537 3.59201 27.4877 3.68201 27.7217 3.68201ZM24.812 1.918H18.602H18.566H18.548C18.044 1.918 17.648 2.314 17.648 2.818V13.582C17.648 14.086 18.044 14.482 18.548 14.482C19.034 14.482 19.448 14.086 19.448 13.582V9.13601H23.534C24.02 9.13601 24.434 8.74001 24.434 8.23601C24.434 7.73201 24.02 7.33601 23.534 7.33601H19.448V3.71801H24.812C25.298 3.71801 25.712 3.322 25.712 2.818C25.712 2.314 25.298 1.918 24.812 1.918ZM29.6321 9.98201C29.6321 7.48001 31.6661 5.464 34.1501 5.464C36.6341 5.464 38.668 7.48001 38.668 9.98201V13.6C38.668 14.104 38.2721 14.5 37.7681 14.5C37.2821 14.5 36.8861 14.104 36.8861 13.6V9.98201C36.8861 8.47001 35.6621 7.24601 34.1501 7.24601C32.6381 7.24601 31.4141 8.47001 31.4141 9.98201V13.6C31.4141 14.104 31.0181 14.5 30.5141 14.5C30.0281 14.5 29.6321 14.104 29.6321 13.6V9.98201ZM40.5888 14.518C41.0748 14.518 41.4708 14.122 41.4708 13.618V6.36401C41.4708 5.87801 41.0748 5.48201 40.5888 5.48201C40.0848 5.48201 39.6888 5.87801 39.6888 6.36401V13.618C39.6888 14.122 40.0848 14.518 40.5888 14.518ZM40.5888 3.68201C40.8228 3.68201 41.0568 3.59201 41.2188 3.43001C41.3808 3.26801 41.4708 3.03401 41.4708 2.8C41.4708 2.566 41.3808 2.332 41.2188 2.17C41.0568 2.00801 40.8228 1.9 40.5888 1.9C40.3548 1.9 40.1208 2.00801 39.9588 2.17C39.7968 2.332 39.6888 2.566 39.6888 2.8C39.6888 3.03401 39.7968 3.26801 39.9588 3.43001C40.1208 3.59201 40.3548 3.68201 40.5888 3.68201ZM50.7972 12.448C49.9692 13.744 48.5472 14.518 46.9992 14.518C44.5152 14.518 42.4992 12.484 42.4992 10C42.4992 7.498 44.5152 5.48201 46.9992 5.48201C48.6192 5.48201 50.1132 6.34601 50.9232 7.73201C51.1752 8.16401 51.0132 8.70401 50.5992 8.95601C50.1672 9.19001 49.6272 9.04601 49.3752 8.63201C48.8892 7.78601 47.9892 7.26401 46.9992 7.26401C45.5052 7.26401 44.2632 8.48801 44.2632 10C44.2632 11.494 45.5052 12.736 46.9992 12.736C47.9352 12.736 48.7992 12.268 49.3032 11.476C49.5732 11.062 50.1312 10.954 50.5452 11.206C50.9592 11.476 51.0672 12.034 50.7972 12.448ZM66.0064 6.418C66.0064 5.93201 66.4024 5.53601 66.8884 5.53601C67.3924 5.53601 67.7884 5.93201 67.7884 6.418V15.292C67.7884 17.326 66.1144 19 64.0624 19C62.6404 19 61.3624 18.19 60.7324 16.912C60.5164 16.48 60.6964 15.94 61.1464 15.724C61.5784 15.508 62.1184 15.706 62.3164 16.138C62.6584 16.804 63.3244 17.218 64.0624 17.218C65.1424 17.218 66.0064 16.354 66.0064 15.292V13.996C65.4664 14.32 64.8364 14.5 64.1524 14.5C62.1724 14.5 60.5524 12.898 60.5344 10.918V10.9V6.418C60.5344 5.93201 60.9304 5.53601 61.4164 5.53601C61.9024 5.53601 62.2984 5.93201 62.2984 6.418V10.882C62.2984 11.908 63.1444 12.736 64.1524 12.736C65.1784 12.736 66.0064 11.908 66.0064 10.882V6.418ZM3.94832 2.21047C4.22175 1.76878 4.70424 1.5 5.22372 1.5H10.1632C10.8573 1.5 11.4608 1.97627 11.6221 2.65142L12.4589 6.15384C12.4862 6.26803 12.5 6.38502 12.5 6.50242V8.1323C12.5 8.52296 12.3476 8.89821 12.0752 9.17824L11.6804 9.58407C11.3075 9.96739 10.728 10.0622 10.2523 9.81776C10.1535 9.76696 10.0322 9.79926 9.97178 9.8925L9.68539 10.3341C9.30142 10.9262 8.467 11.0083 7.97493 10.5025C7.93044 10.4568 7.85499 10.4642 7.82028 10.5177L7.54513 10.942C7.1928 11.4853 6.46198 11.6314 5.92785 11.2653C5.82721 11.1964 5.69047 11.2684 5.69047 11.3904V14.4762C5.69047 15.0416 5.2321 15.5 4.66666 15.5C4.10123 15.5 3.64285 15.0416 3.64285 14.4762V7.63785C3.64285 7.24646 3.21349 7.00682 2.88037 7.21229L2.08961 7.70002C1.71295 7.93233 1.22549 7.87194 0.916909 7.55473C0.583206 7.21169 0.558852 6.67327 0.860224 6.3015L3.21063 3.40212L3.94832 2.21047Z" fill="black"/>
<path fill-rule="evenodd" clip-rule="evenodd" d="M59.2639 13.006L55.9879 9.06401L59.1379 6.99401C59.5159 6.68801 59.5699 6.11201 59.2639 5.73401C58.9398 5.35601 58.3819 5.32 58.0038 5.62601L53.9179 8.30801V1.9C53.9179 1.414 53.5038 1.01801 53.0178 1.01801C52.5318 1.01801 52.1359 1.414 52.1359 1.9V9.946V13.564C52.1359 14.068 52.5318 14.464 53.0178 14.464C53.5038 14.464 53.9179 14.068 53.9179 13.564V10.414L54.4758 10.036L57.8958 14.14C58.0578 14.356 58.3099 14.464 58.5799 14.464C58.7779 14.464 58.9758 14.392 59.1379 14.248C59.5159 13.942 59.5699 13.384 59.2639 13.006ZM27.7217 14.518C28.2077 14.518 28.6037 14.122 28.6037 13.618V6.36401C28.6037 5.87801 28.2077 5.48201 27.7217 5.48201C27.2177 5.48201 26.8217 5.87801 26.8217 6.36401V13.618C26.8217 14.122 27.2177 14.518 27.7217 14.518ZM27.7217 3.68201C27.9557 3.68201 28.1897 3.59201 28.3517 3.43001C28.5137 3.26801 28.6037 3.03401 28.6037 2.8C28.6037 2.566 28.5137 2.332 28.3517 2.17C28.1897 2.00801 27.9557 1.9 27.7217 1.9C27.4877 1.9 27.2537 2.00801 27.0917 2.17C26.9297 2.332 26.8217 2.566 26.8217 2.8C26.8217 3.03401 26.9297 3.26801 27.0917 3.43001C27.2537 3.59201 27.4877 3.68201 27.7217 3.68201ZM24.812 1.918H18.602H18.566H18.548C18.044 1.918 17.648 2.314 17.648 2.818V13.582C17.648 14.086 18.044 14.482 18.548 14.482C19.034 14.482 19.448 14.086 19.448 13.582V9.13601H23.534C24.02 9.13601 24.434 8.74001 24.434 8.23601C24.434 7.73201 24.02 7.33601 23.534 7.33601H19.448V3.71801H24.812C25.298 3.71801 25.712 3.322 25.712 2.818C25.712 2.314 25.298 1.918 24.812 1.918ZM29.6321 9.98201C29.6321 7.48001 31.6661 5.464 34.1501 5.464C36.6341 5.464 38.668 7.48001 38.668 9.98201V13.6C38.668 14.104 38.2721 14.5 37.7681 14.5C37.2821 14.5 36.8861 14.104 36.8861 13.6V9.98201C36.8861 8.47001 35.6621 7.24601 34.1501 7.24601C32.6381 7.24601 31.4141 8.47001 31.4141 9.98201V13.6C31.4141 14.104 31.0181 14.5 30.5141 14.5C30.0281 14.5 29.6321 14.104 29.6321 13.6V9.98201ZM40.5888 14.518C41.0748 14.518 41.4708 14.122 41.4708 13.618V6.36401C41.4708 5.87801 41.0748 5.48201 40.5888 5.48201C40.0848 5.48201 39.6888 5.87801 39.6888 6.36401V13.618C39.6888 14.122 40.0848 14.518 40.5888 14.518ZM40.5888 3.68201C40.8228 3.68201 41.0568 3.59201 41.2188 3.43001C41.3808 3.26801 41.4708 3.03401 41.4708 2.8C41.4708 2.566 41.3808 2.332 41.2188 2.17C41.0568 2.00801 40.8228 1.9 40.5888 1.9C40.3548 1.9 40.1208 2.00801 39.9588 2.17C39.7968 2.332 39.6888 2.566 39.6888 2.8C39.6888 3.03401 39.7968 3.26801 39.9588 3.43001C40.1208 3.59201 40.3548 3.68201 40.5888 3.68201ZM50.7972 12.448C49.9692 13.744 48.5472 14.518 46.9992 14.518C44.5152 14.518 42.4992 12.484 42.4992 10C42.4992 7.498 44.5152 5.48201 46.9992 5.48201C48.6192 5.48201 50.1132 6.34601 50.9232 7.73201C51.1752 8.16401 51.0132 8.70401 50.5992 8.95601C50.1672 9.19001 49.6272 9.04601 49.3752 8.63201C48.8892 7.78601 47.9892 7.26401 46.9992 7.26401C45.5052 7.26401 44.2632 8.48801 44.2632 10C44.2632 11.494 45.5052 12.736 46.9992 12.736C47.9352 12.736 48.7992 12.268 49.3032 11.476C49.5732 11.062 50.1312 10.954 50.5452 11.206C50.9592 11.476 51.0672 12.034 50.7972 12.448ZM66.0064 6.418C66.0064 5.93201 66.4024 5.53601 66.8884 5.53601C67.3924 5.53601 67.7884 5.93201 67.7884 6.418V15.292C67.7884 17.326 66.1144 19 64.0624 19C62.6404 19 61.3624 18.19 60.7324 16.912C60.5164 16.48 60.6964 15.94 61.1464 15.724C61.5784 15.508 62.1184 15.706 62.3164 16.138C62.6584 16.804 63.3244 17.218 64.0624 17.218C65.1424 17.218 66.0064 16.354 66.0064 15.292V13.996C65.4664 14.32 64.8364 14.5 64.1524 14.5C62.1724 14.5 60.5524 12.898 60.5344 10.918V10.9V6.418C60.5344 5.93201 60.9304 5.53601 61.4164 5.53601C61.9024 5.53601 62.2984 5.93201 62.2984 6.418V10.882C62.2984 11.908 63.1444 12.736 64.1524 12.736C65.1784 12.736 66.0064 11.908 66.0064 10.882V6.418ZM3.94832 2.21047C4.22175 1.76878 4.70424 1.5 5.22372 1.5H10.1632C10.8573 1.5 11.4608 1.97627 11.6221 2.65142L12.4589 6.15384C12.4862 6.26803 12.5 6.38502 12.5 6.50242V8.1323C12.5 8.52296 12.3476 8.89821 12.0752 9.17824L11.6804 9.58407C11.3075 9.96739 10.728 10.0622 10.2523 9.81776C10.1535 9.76696 10.0322 9.79926 9.97178 9.8925L9.68539 10.3341C9.30142 10.9262 8.467 11.0083 7.97493 10.5025C7.93044 10.4568 7.85499 10.4642 7.82028 10.5177L7.54513 10.942C7.1928 11.4853 6.46198 11.6314 5.92785 11.2653C5.82721 11.1964 5.69047 11.2684 5.69047 11.3904V14.4762C5.69047 15.0416 5.2321 15.5 4.66666 15.5C4.10123 15.5 3.64285 15.0416 3.64285 14.4762V7.63785C3.64285 7.24646 3.21349 7.00682 2.88037 7.21229L2.08961 7.70002C1.71295 7.93233 1.22549 7.87194 0.916909 7.55473C0.583206 7.21169 0.558852 6.67327 0.860224 6.3015L3.21063 3.40212L3.94832 2.21047Z" stroke="white" stroke-width="0.6" mask="url(#path-1-outside-1)"/>
</svg>
